<svg xmlns="http://www.w3.org/2000/svg" width="170.667" height="170.667" version="1.0" viewBox="0 0 128 128"><g fill="#29332b"><path d="M50.5 1.6C26.1 6.8 6.7 26.5 1.6 51.3c-2 9.6-2 15.8 0 25.4 5.2 25.2 24.6 44.6 49.6 49.7 9.7 2 15.9 2 25.6 0 25-5.1 44.4-24.5 49.6-49.7 2-9.6 2-15.8 0-25.5-7.1-34.7-41.1-56.9-75.9-49.6zm28.4 8.1c9.5 2.6 17.2 7.2 24.7 14.7 11.3 11.3 16.7 24.1 16.7 39.6s-5.4 28.3-16.7 39.6c-11.3 11.3-24.2 16.7-39.7 16.7-21.2-.1-40.7-12.1-50-30.7-2.2-4.5-4-9-4-10.1-.1-2.9 4.7-15.4 6.7-17.7 1-1 4.5-3.3 7.8-5.1 6.9-3.7 10.8-8.6 13.1-16.4C39.4 33.9 42 31 48.4 28c6.3-3 11.2-8.8 13.1-15.4l1.6-5.5 5.2.5c2.9.3 7.7 1.3 10.6 2.1zm-24.4 1c-1.1 4.7-4.4 8.1-10.8 11.5C36.5 26.1 31.5 32 30.5 38c-.9 5.2-5.5 10.7-11.1 13-2.3 1-5.8 3.5-7.8 5.6L8 60.3v-3c0-1.6.7-5.4 1.6-8.4C15.1 30.4 29.2 16 48 9.9c7.2-2.4 7.3-2.3 6.5.8z"/><path d="M74.8 23.3c-5.3 3.5-5.5 4.2-3 7.5l1.7 2.2 5.3-3.5c2.8-2 5.2-3.9 5.2-4.3 0-1.1-3-5.2-3.8-5.1-.4 0-2.8 1.5-5.4 3.2zM90.3 37.7c-3 2-2.9 2.5 1 8.3l3.3 4.9 3.2-2 3.1-2-3.6-5.5c-2-3-3.9-5.4-4.2-5.3-.3 0-1.6.7-2.8 1.6zM54.5 43.7C46.3 48 42 55 42 64c0 13 9 22 22 22s22-9 22-22c0-9-4.2-16-12.2-20.1-4.7-2.4-15-2.5-19.3-.2zm15.9 6.7c5.2 2.2 8.1 7.1 8.1 13.6 0 9.5-6.9 15.8-16.1 14.7-8.7-.9-14.3-8.2-13.1-17 1.3-9.8 11.5-15.3 21.1-11.3zM102 64c0 3.9.1 4 3.5 4s3.5-.1 3.5-4-.1-4-3.5-4-3.5.1-3.5 4zM26.7 78.8c-1.5.9-2.7 2.1-2.7 2.6 0 1.1 6 10.6 6.6 10.6 1.1 0 5.4-3.3 5.4-4.2 0-.5-1.5-3.1-3.3-5.8l-3.3-4.8-2.7 1.6zM96.6 80.5c-.3.8-.8 3.7-1.2 6.5-.5 3.9-.4 5 .7 5 .8 0 2.3.3 3.5.6 1.8.5 2.1-.1 3.2-5.7.9-4.9.9-6.5-.1-7.1-2-1.3-5.4-.9-6.1.7zM45.2 97.7c.3 3.5.6 3.8 3.6 4.1 3.1.3 3.2.2 3.2-3.7 0-4-.1-4.1-3.6-4.1s-3.5.1-3.2 3.7zM73.2 100.5c-4.3 3-5.1 3.9-4.2 5.3 2.6 4.6 2.5 4.6 8.3.7l5.7-3.8-2.1-2.8c-1.1-1.6-2.1-2.9-2.2-2.9-.1 0-2.6 1.6-5.5 3.5z"/></g></svg>