<svg xmlns="http://www.w3.org/2000/svg" width="170.667" height="170.667" version="1.0" viewBox="0 0 128 128"><path fill="#29332b" d="M29 11.9C13.1 16.8 5.1 35.5 12.5 50.5c1.4 2.9 3.2 5.8 4 6.5 1.1.9.3 2.2-4.9 7.3C3 72.8.8 78.5.2 94.2L-.2 106H27v11h74v-11h27.2l-.4-11.8c-.6-15.7-2.8-21.4-11.4-29.9-5.2-5.1-6-6.4-4.9-7.3.8-.7 2.6-3.6 4-6.5 5-10.1 2.9-23.3-4.8-31.3-4.9-5.1-10.2-7.5-18.2-8-8.5-.5-15.3 1.9-20.6 7.4-2.8 2.9-4 3.4-7.9 3.4-3.9 0-5.1-.5-7.6-3.1-4.5-4.9-11.8-7.9-18.9-7.8-3.3 0-7.1.4-8.5.8zM47.1 20c6 3.1 6.4 4.3 2 6.8-8.3 4.7-14.3 18.2-12.3 27.7 1 4.5 1 4.5-1.9 4.5-4 0-7.2-1.4-11.4-5.2-7.6-6.6-9.4-15.6-4.9-24.7C24 18.4 36.1 14.5 47.1 20zm54.6.6c5.1 2.9 9.4 9.7 10.1 16 .6 6-1.9 12.4-6.9 16.9-4.5 4-7.7 5.5-11.9 5.5-2.8 0-2.8 0-1.8-4 2.4-9.2-3.9-23.5-12.3-28.2-4.3-2.4-4-3.6 1.5-6.5 7.3-3.8 14.3-3.7 21.3.3zM72.6 30.9c10.2 4.6 15.1 17.6 10.5 27.6-7.6 16.5-30.6 16.5-38.2 0C38.7 45.1 49.2 29 64 29c2.5 0 6.3.9 8.6 1.9zM28.5 64.5c2.2.8 6.1 1.4 8.7 1.5 3.7 0 5 .4 5.8 2 .9 1.7.3 2.7-4.3 7.3-5.5 5.4-9.9 13.3-11.1 19.9l-.7 3.8H6.8l.4-8.8c.5-10.7 3.7-17.5 11.1-23.4 5.6-4.4 5-4.2 10.2-2.3zm81.2 2.3c7.4 5.9 10.6 12.7 11.1 23.4l.4 8.8h-20.1l-.7-3.8c-1.2-6.6-5.6-14.5-11.1-19.9-4.6-4.6-5.2-5.6-4.3-7.3.8-1.6 2.1-2 5.8-2.1 2.6 0 6.3-.6 8.2-1.3 5.2-2 5.4-1.9 10.7 2.2zM59.3 76.9c3.2.7 6.2.7 9.5 0 2.6-.6 5.8-1.3 7.2-1.5 2.1-.5 3.7.4 7.8 4.2 7.6 6.7 9.5 10.9 10 22.1l.4 9.3H33.8l.4-9.2c.5-11.3 2.4-15.5 10-22.2 4.1-3.8 5.7-4.7 7.8-4.2 1.4.2 4.6.9 7.3 1.5z"/></svg>