<svg xmlns="http://www.w3.org/2000/svg" width="170.667" height="170.667" version="1.0" viewBox="0 0 128 128"><g fill="#29332b"><path d="M3.2.9C1.3 2.1-.2 15.9.6 24.5c2.2 23.7 12 36.4 31.6 41 8.9 2 54.7 2 63.6 0 21.2-4.9 31.5-20.1 31.6-46.5 0-20.6-1.4-22-13.1-13.3-4.3 3.2-11.7 7.5-16.3 9.6-4.7 2.1-10.5 4.8-13 6-5.8 2.7-15.9 13-18.4 18.5-1 2.3-2.2 4.2-2.6 4.2-.3 0-1.5-1.9-2.7-4.3-4.6-9.4-14.1-17.4-25.6-21.7-7.6-2.9-16.3-7.8-23.6-13.5C5.8-.3 5.3-.5 3.2.9zm28.1 23.2c6 2.7 12.7 6.3 15 8.2 4.1 3.4 9.8 11.8 11.2 16.5.6 2.1.2 2-4.2-1.4-5.6-4.3-15.9-9.4-18.9-9.4-1.2 0-2.7.6-3.3 1.4-1.9 2.3.2 5.1 4.7 6.4 4.5 1.4 14.5 7.8 18.1 11.6l2.4 2.6h-7.9c-14.7 0-26.1-4.2-32.3-11.7C10.9 42 8.8 35 8.2 22.1l-.5-11.4 6.4 4.4c3.5 2.3 11.2 6.4 17.2 9zm87.2 10.2c-3 11.9-10.3 20-20.8 23.2-2.9.9-9.9 1.9-15.7 2.2l-10.5.6 2.5-2.8c3.6-3.9 13.5-10.3 18.2-11.7 4.5-1.3 6.6-4.1 4.7-6.4-.6-.8-2.1-1.4-3.3-1.4-3 0-13.3 5.1-18.9 9.4-4.4 3.4-4.8 3.5-4.2 1.4 1.5-5 7.2-13.3 11.6-16.8 2.6-2 9.1-5.6 14.6-7.9 5.4-2.3 12.8-6.1 16.4-8.5l6.4-4.3.3 8.4c.2 5.3-.3 10.7-1.3 14.6zM78.2 74.3c-2.3 2.7-2.4 6.2-.2 9 2.5 3.2 5.3 3.4 8 .7 2.5-2.5 2.6-7.2.2-9.3-2.2-2-6.5-2.2-8-.4zm5.7 3.5c1.2 2.3-.2 4.7-2.3 3.9-2.4-1-2-5.7.5-5.7.5 0 1.3.8 1.8 1.8zM87.1 86.2c-3.6 8.4-4.9 12.4-4.1 13.2 1.5 1.5 2.3.3 7.4-11.9 5-11.9 5.3-13.5 3.2-13.5-.9 0-3.4 4.8-6.5 12.2zM27 78.1c0 .6.9 1.3 2 1.6 1.7.5 2 1.5 2.2 10.2.2 7.7.6 9.6 1.8 9.6 1.2 0 1.6-2 1.8-11.3l.3-11.2H31c-2.2 0-4 .5-4 1.1zM41 79c-1.6 1.6-2 3.3-2 9 0 6.2.3 7.4 2.5 9.5 4.6 4.7 10.7 2.2 12.1-5 .9-5-.1-11.3-2.2-13.6-2.3-2.5-7.8-2.5-10.4.1zm7.8 2.2c1.2 1.2 1.7 10.4.6 13.2-.9 2.3-5.1 2-6.5-.5-1.4-2.8-.6-11.8 1.2-13 1.9-1.2 3.3-1.1 4.7.3zM59.7 78.8c-2.6 2.9-2.4 16.5.3 19.2 2.6 2.6 6 2.5 9.4-.1 2.4-1.9 2.6-2.7 2.6-9.3 0-9-1.5-11.6-6.9-11.6-2.4 0-4.4.7-5.4 1.8zm8.3 3.1c1.4 2.7 1.3 11.4-.2 12.9-1.7 1.7-5.5 1.5-6.2-.4-1.1-2.8-.6-12 .6-13.2 1.8-1.8 4.6-1.4 5.8.7zM91 90c-3.9 3.9-1.4 11 4 11 5.5 0 7.7-7.2 3.4-11.4-2.1-2.2-5-2-7.4.4zm5.5 5c0 3.6-2.9 3.3-3.3-.3-.3-2.3 0-2.8 1.5-2.5 1.2.2 1.8 1.2 1.8 2.8zM7.5 108.2c-5.9 3.2-7.3 10.5-2.9 15.7 4.8 5.8 13.5 4.7 17-2 4.4-8.6-5.6-18.4-14.1-13.7zm9.8 4.6c2.3 2.1 2.2 6.7-.4 9.3-2.8 2.8-7.6 2.2-10.1-1.2-5-6.7 4-13.8 10.5-8.1zM26 117.5c0 8.7.3 10.5 1.5 10.5 1 0 1.5-1.1 1.5-3.5 0-1.9.2-3.5.5-3.5s2 1.7 3.9 3.7c2.8 3 3.7 3.6 4.7 2.6s.7-1.9-1.5-4.2l-2.7-2.9 2.6-2.6c2.1-2.1 2.6-3.3 2-5.4-.9-3.7-3.2-5.2-8.2-5.2H26v10.5zm8-6c1.8 2.1.5 4.5-2.5 4.5-2 0-2.5-.5-2.5-2.3 0-3.9 2.6-5 5-2.2zM44.8 109.9c-8.5 7.6-.1 21.4 10.3 17.1 3.2-1.3 5.9-5.5 5.9-9 0-1.7-.6-2-4.6-2-3.2 0-4.4.4-4.2 1.2.3.7 1.4 1.4 2.6 1.6 2.5.4 2.6.6 1.2 3.3-1.4 2.5-7.1 2.6-9.3.1-2.7-2.9-2.2-7.7 1-10.2 1.5-1.2 3.4-1.9 4.3-1.6 5.6 1.8 6 1.8 6 .3 0-2.1-3.1-3.7-6.9-3.7-2 0-4.2 1-6.3 2.9zM69 108.9c-.5 1.1-2.3 5.5-4 9.7-2.1 5.6-2.7 8.1-1.9 8.9.8.7 1.5.3 2.6-1.3 2.2-3.1 8.4-3.1 10.6.1 1 1.5 1.8 1.9 2.6 1.2 1.4-1.3-5.7-20.5-7.5-20.5-.7 0-1.8.9-2.4 1.9zm3.4 7.3c.9 3.5.8 3.8-1.4 3.8-1.1 0-2-.3-2-.8 0-1.9 1.3-5.2 2-5.2.4 0 1 1 1.4 2.2zM83 117.6c0 8 .3 10.5 1.3 10.2.7-.3 1.4-3 1.7-6.8l.5-6.4 2.9 4.5c3.8 5.8 6.7 9 7.7 8.3.5-.3.9-5 .9-10.5 0-8-.3-9.9-1.5-9.9-1.1 0-1.5 1.6-1.7 6.6l-.3 6.7-4.5-6.6c-2.5-3.7-5.1-6.7-5.7-6.7-1 0-1.3 2.8-1.3 10.6zM102 117.5c0 8.7.3 10.5 1.5 10.5s1.5-1.8 1.5-10.5-.3-10.5-1.5-10.5-1.5 1.8-1.5 10.5zM111.9 109.9c-5.7 5.8-3.1 15.8 4.7 17.7 3.2.8 7.3-.5 8.8-2.8 1.4-2.3 0-3.5-2.4-2-2.9 1.8-6.7 1.5-9-.8-5.2-5.2.7-13.6 7.7-10.9 3.3 1.2 5-.2 2.8-2.5-2.8-2.7-9.2-2.1-12.6 1.3z"/></g></svg>