<svg xmlns="http://www.w3.org/2000/svg" width="170.667" height="170.667" version="1.0" viewBox="0 0 128 128"><g fill="#29332b"><path d="M36.5 1.3c-3.9 1.8-8.8 7.4-12.1 13.9-3.6 7-7.3 22.4-8 32.7-.8 12.3-1.1 13.3-3.5 12.6C8.2 59 8 60 8 93.9c0 23.3.3 32 1.2 32.9 1.7 1.7 107.9 1.7 109.6 0 .9-.9 1.2-9.6 1.2-32.9 0-33.9-.2-34.9-4.9-33.4-2.4.7-2.7-.3-3.5-12.6-1.2-17.9-7.8-36.2-15.7-43.4-5.9-5.3-12-5.5-19-.4-1.3 1-2.2.8-4.8-1C66.4-1 61.9-.8 54.4 4c-1.8 1.1-2.5 1-5-.9C45.6.3 40.3-.4 36.5 1.3zm10.1 8.8c1.7 1.9 1.7 2.2-.4 6.4-1.8 3.8-3.2 5-8.7 7.7-6.5 3.2-7.9 4.7-6.9 7.2.9 2.3 3.3 2.7 6.6 1 1.6-.8 3.2-1.3 3.5-1.1.2.3.1 2.6-.3 5.2-.5 3.9-1.2 5-3.7 6.4-5.3 2.8-6.9 4.9-5.6 7.2.8 1.6 1.8 2 4 1.7 2.8-.4 2.9-.3 2.9 3.6 0 4-.2 4.2-6.6 7.8-3.6 2.1-7.1 3.5-7.6 3.1-.7-.4-.9-4.7-.5-12.7 1.5-31 13.8-53.9 23.3-43.5zm21.3-.5 3 2.5-2 4.2c-1.7 3.5-3.3 4.9-8.7 7.7-7 3.7-8.8 6.4-5.7 8.6 1.4 1.1 2.4 1 5.3-.2 1.9-.8 3.6-1.3 3.8-1.2.1.2-.2 2.6-.7 5.3-.9 5.1-1.4 5.7-6.9 8.7-2.3 1.3-3.1 2.4-2.8 4 .3 2 .9 2.3 4.1 2.2 3.5-.1 3.7 0 3.7 3 0 5.5-1.1 7.5-5.6 10.1-4.2 2.5-4.5 2.5-7.5.9l-3.2-1.6.7-9.3c1.7-22.9 8.5-42.4 16.1-46.3 2.9-1.5 3-1.5 6.4 1.4zm24.7 1.7c4 4.7 6.4 10.2 9 20.6 2.8 10.8 4.5 33.3 2.6 34.5-.6.3-3.9-1-7.3-3.1l-6.3-3.7-6.8 3.8-6.8 3.7-4.7-2.7-4.6-2.8.6-10.1c.7-10.5 4.3-26.8 7.2-32.6C81.4 7.2 87 4.7 92.6 11.3zM44.2 71.7l6.2 3.7 6.8-3.7 6.8-3.6 6.8 3.6 6.8 3.7 6.2-3.7 6.3-3.7 6.7 3.7 6.6 3.7 4.8-2.7L113 70l-.2 25.2-.3 25.3h-97l-.3-25.3L15 70l4.8 2.7 4.8 2.7 6.5-3.7c3.5-2 6.5-3.6 6.6-3.7.1 0 3 1.7 6.5 3.7z"/><path d="M81.8 25.1c-5.6 2-7.2 3.6-6.2 6.3 1 2.5 3.1 2.6 9.6.4 7.5-2.5 9.2-3.8 8.3-6.7-.8-2.7-4-2.6-11.7 0zM83.2 43.4c-7.2 2.4-9.4 4.9-6.8 7.4 1.4 1.4 2.2 1.5 6.2.4C90.7 49 94 47.3 94 45.1c0-1.6-2.8-4.4-4.2-4-.2 0-3.2 1-6.6 2.3zM41.9 99.6c-.9 1.1-1 2-.2 3.2.9 1.5 3.7 1.7 21.4 2 18 .2 20.5.1 21.6-1.4.9-1.2.9-2.2.2-3.5-.9-1.8-2.5-1.9-21.3-1.9-17.4 0-20.5.2-21.7 1.6z"/></g></svg>